<svg version="1.1" id="Capa_1" xmlns="http://www.w3.org/2000/svg" xmlns:xlink="http://www.w3.org/1999/xlink" x="0px" y="0px"
	 viewBox="0 0 24 24" style="enable-background:new 0 0 24 24;" xml:space="preserve" fill="#e3e3e3">
<path d="M8.2,17c-0.4,0-0.8-0.1-1-0.3c-0.3-0.2-0.4-0.5-0.4-0.9c0-0.3,0.1-0.5,0.2-0.7c0.2-0.2,0.4-0.3,0.6-0.3
	c0.2,0,0.4,0.1,0.6,0.2c0.2,0.2,0.2,0.3,0.2,0.6c0,0,0,0.1,0,0.1s0,0.1,0,0.1c0,0,0.1,0,0.1-0.1c0,0,0.1-0.1,0.1-0.2l0.9-4.7h-1
	c-0.2,0-0.3-0.1-0.4-0.2s-0.2-0.2-0.2-0.4S7.9,10.1,8,10c0.1-0.1,0.2-0.2,0.4-0.2h1.2l0.3-1.6c0.1-0.3,0.2-0.6,0.5-0.9
	s0.6-0.3,1-0.3c0.4,0,0.7,0.1,1,0.4c0.3,0.2,0.4,0.5,0.4,0.9c0,0.3-0.1,0.5-0.2,0.7S12.2,9.3,12,9.3c-0.2,0-0.4-0.1-0.6-0.2
	c-0.2-0.2-0.2-0.3-0.2-0.6c0,0,0-0.1,0-0.1s0-0.1,0-0.1c-0.1,0-0.1,0-0.1,0.1c0,0-0.1,0.1-0.1,0.2l-0.2,1.4h2.1
	c0.2,0,0.3,0.1,0.4,0.2c0.1,0.1,0.2,0.2,0.2,0.4c0,0.1,0,0.3-0.1,0.4c-0.1,0.1-0.2,0.2-0.3,0.2l0.7,0.8l0.7-0.8
	c-0.1,0-0.2-0.1-0.3-0.2c-0.1-0.1-0.1-0.2-0.1-0.4c0-0.2,0.1-0.3,0.2-0.4c0.1-0.1,0.2-0.2,0.4-0.2h1.7c0.2,0,0.3,0.1,0.4,0.2
	c0.1,0.1,0.2,0.2,0.2,0.4s-0.1,0.3-0.2,0.4c-0.1,0.1-0.2,0.2-0.4,0.2h-0.3l-1.5,1.7l1.5,1.7h0.3c0.2,0,0.3,0.1,0.4,0.2
	c0.1,0.1,0.2,0.2,0.2,0.4c0,0.2-0.1,0.3-0.2,0.4c-0.1,0.1-0.2,0.2-0.4,0.2h-1.7c-0.2,0-0.3-0.1-0.4-0.2s-0.2-0.2-0.2-0.4
	c0-0.1,0-0.3,0.1-0.4c0.1-0.1,0.2-0.2,0.3-0.2l-0.7-0.8l-0.7,0.8c0.1,0,0.2,0.1,0.3,0.2s0.1,0.2,0.1,0.4c0,0.2-0.1,0.3-0.2,0.4
	s-0.2,0.2-0.4,0.2h-1.7c-0.2,0-0.3-0.1-0.4-0.2c-0.1-0.1-0.2-0.2-0.2-0.4c0-0.2,0.1-0.3,0.2-0.4c0.1-0.1,0.2-0.2,0.4-0.2h0.3
	l1.5-1.7l-1.5-1.7h-0.9l-0.9,4.8c-0.1,0.4-0.2,0.7-0.5,1C8.9,16.9,8.6,17,8.2,17z"/>
<path d="M5.3,20.5c-0.5,0-0.9-0.2-1.3-0.5s-0.5-0.8-0.5-1.3V5.3C3.5,4.8,3.7,4.4,4,4s0.8-0.5,1.3-0.5h13.4
	c0.5,0,0.9,0.2,1.3,0.5s0.5,0.8,0.5,1.3v13.4c0,0.5-0.2,0.9-0.5,1.3s-0.8,0.5-1.3,0.5H5.3z M5.3,19h13.4c0.1,0,0.1,0,0.2-0.1
	c0.1-0.1,0.1-0.1,0.1-0.2V5.3c0-0.1,0-0.1-0.1-0.2C18.8,5,18.8,5,18.7,5H5.3C5.2,5,5.2,5,5.1,5.1C5,5.2,5,5.2,5,5.3v13.4
	c0,0.1,0,0.1,0.1,0.2C5.2,19,5.2,19,5.3,19z M5,5v14V5z"/>
</svg>
