<!-- Generator: Adobe Illustrator 24.0.2, SVG Export Plug-In . SVG Version: 6.00 Build 0)  -->
<svg version="1.1" id="Capa_1" xmlns="http://www.w3.org/2000/svg" xmlns:xlink="http://www.w3.org/1999/xlink" x="0px" y="0px"
	 viewBox="0 0 24 24" style="enable-background:new 0 0 24 24;" xml:space="preserve" fill="#e3e3e3">
<path d="M5.5,21c-0.8,0-1.4-0.2-1.8-0.6C3.2,20,3,19.5,3,18.8c0-0.5,0.1-1,0.4-1.3S4.1,17,4.5,17c0.4,0,0.8,0.1,1.1,0.4
	c0.3,0.3,0.4,0.6,0.4,1c0,0.1,0,0.2,0,0.2s0,0.1,0,0.2c0.1,0,0.2-0.1,0.2-0.1c0.1-0.1,0.1-0.2,0.1-0.3L7.8,10H6
	c-0.3,0-0.5-0.1-0.7-0.3C5.1,9.5,5,9.3,5,9s0.1-0.5,0.3-0.7C5.5,8.1,5.7,8,6,8h2.2l0.5-2.8C8.9,4.5,9.2,4,9.7,3.6
	C10.2,3.2,10.8,3,11.5,3c0.7,0,1.3,0.2,1.8,0.7s0.7,1,0.7,1.6c0,0.5-0.1,0.9-0.4,1.2C13.3,6.8,12.9,7,12.5,7c-0.4,0-0.8-0.1-1.1-0.4
	C11.1,6.3,11,5.9,11,5.5c0-0.1,0-0.2,0-0.2c0-0.1,0-0.1,0-0.2c-0.1,0-0.2,0.1-0.2,0.2c0,0.1-0.1,0.2-0.1,0.3L10.3,8H14
	c0.3,0,0.5,0.1,0.7,0.3C14.9,8.5,15,8.7,15,9c0,0.3-0.1,0.5-0.2,0.6c-0.2,0.2-0.4,0.3-0.6,0.3l1.3,1.5l1.3-1.5
	c-0.2,0-0.4-0.1-0.6-0.3C16.1,9.5,16,9.2,16,9c0-0.3,0.1-0.5,0.3-0.7C16.5,8.1,16.7,8,17,8h3c0.3,0,0.5,0.1,0.7,0.3
	C20.9,8.5,21,8.7,21,9s-0.1,0.5-0.3,0.7C20.5,9.9,20.3,10,20,10h-0.5l-2.6,3l2.6,3H20c0.3,0,0.5,0.1,0.7,0.3
	c0.2,0.2,0.3,0.4,0.3,0.7c0,0.3-0.1,0.5-0.3,0.7C20.5,17.9,20.3,18,20,18h-3c-0.3,0-0.5-0.1-0.7-0.3C16.1,17.5,16,17.3,16,17
	c0-0.3,0.1-0.5,0.2-0.6c0.2-0.2,0.4-0.3,0.6-0.3l-1.3-1.5L14.2,16c0.2,0,0.4,0.1,0.6,0.3c0.2,0.2,0.2,0.4,0.2,0.6
	c0,0.3-0.1,0.5-0.3,0.7C14.5,17.9,14.3,18,14,18h-3c-0.3,0-0.5-0.1-0.7-0.3C10.1,17.5,10,17.3,10,17c0-0.3,0.1-0.5,0.3-0.7
	c0.2-0.2,0.4-0.3,0.7-0.3h0.6l2.6-3l-2.6-3H9.9l-1.6,8.6c-0.1,0.8-0.4,1.3-0.9,1.8C6.9,20.8,6.3,21,5.5,21z"/>
</svg>
