<svg xmlns="http://www.w3.org/2000/svg" height="24px" viewBox="0 0 19.37 16.41" fill="#e3e3e3"><path d="M4.43,15.15,3.27,18.22a.85.85,0,0,1-.3.39.78.78,0,0,1-.46.14.79.79,0,0,1-.68-.36.8.8,0,0,1-.09-.76L6.39,5.77a.78.78,0,0,1,.29-.38.82.82,0,0,1,.45-.14h.63a.77.77,0,0,1,.45.14.84.84,0,0,1,.29.38l4.65,11.85a.84.84,0,0,1-.78,1.13.86.86,0,0,1-.49-.15.76.76,0,0,1-.31-.41l-1.16-3ZM5,13.65H9.87L7.49,7.35H7.37ZM18.2,21.47A.6.6,0,0,1,18,21a.53.53,0,0,1,.18-.43l.75-.75H16a1.21,1.21,0,0,1-.88-.36,1.22,1.22,0,0,1-.35-.88V15.17a.6.6,0,0,1,.18-.43.61.61,0,0,1,.43-.19.63.63,0,0,1,.44.19.6.6,0,0,1,.18.43v3.45h3l-.71-.74a.62.62,0,0,1-.2-.44.61.61,0,0,1,.19-.44.56.56,0,0,1,.44-.18.63.63,0,0,1,.43.19l1.77,1.78A.8.8,0,0,1,21,19a.51.51,0,0,1,0,.48.78.78,0,0,1-.14.2l-1.79,1.79a.59.59,0,0,1-.44.19A.57.57,0,0,1,18.2,21.47Z" transform="translate(-1.68 -5.25)"/></svg>