<svg xmlns="http://www.w3.org/2000/svg" height="24px" viewBox="0 0 19.37 17.2" fill="#e3e3e3"><path d="M4.43,15.15,3.27,18.22a.85.85,0,0,1-.3.39.78.78,0,0,1-.46.14.79.79,0,0,1-.68-.36.8.8,0,0,1-.09-.76L6.39,5.77a.78.78,0,0,1,.29-.38.82.82,0,0,1,.45-.14h.63a.77.77,0,0,1,.45.14.84.84,0,0,1,.29.38l4.65,11.85a.84.84,0,0,1-.78,1.13.86.86,0,0,1-.49-.15.76.76,0,0,1-.31-.41l-1.16-3ZM5,13.65H9.87L7.49,7.35H7.37ZM18.2,1.74a.6.6,0,0,0-.2.43.54.54,0,0,0,.18.43l.75.75H16a1.21,1.21,0,0,0-.88.36,1.22,1.22,0,0,0-.35.88V8a.61.61,0,0,0,.61.61.62.62,0,0,0,.44-.18A.6.6,0,0,0,16,8V4.59h3l-.71.73a.66.66,0,0,0-.2.44.61.61,0,0,0,.19.45.56.56,0,0,0,.44.18.6.6,0,0,0,.43-.2l1.77-1.78a.62.62,0,0,0,.15-.2.51.51,0,0,0,0-.48.78.78,0,0,0-.14-.2L19.07,1.74a.59.59,0,0,0-.44-.19A.57.57,0,0,0,18.2,1.74Z" transform="translate(-1.68 -1.55)"/></svg>