<svg xmlns="http://www.w3.org/2000/svg" viewBox="0 0 161.59 143.44"><defs><style>.cls-1{fill:#daa63b;}.cls-2{fill:none;fill-rule:evenodd;}</style></defs><title>Recurso 15s</title><g id="Capa_2" data-name="Capa 2"><g id="Capa_6" data-name="Capa 6"><path class="cls-1" d="M10,90.34c.17-2.49,10,3.12,17.08-5a64.15,64.15,0,0,0,6.77-11.6,94.21,94.21,0,0,0,5.5-16.16c5.22-21.49,6.48-47.95,5.5-51.38a2.38,2.38,0,0,1,.06-1.75C45.49,3.32,47.09,3.1,48.15,3a5.13,5.13,0,0,1,3.26.34,4.72,4.72,0,0,1,1.38,1.15,8.48,8.48,0,0,1,1.54,2.75C55.5,10.87,61,44.55,64.93,59.78c1,3.75,2,7,4.18,13.58,4.06,12.35,6.09,18.53,10,25.78,5.53,10.3,10.66,15.34,11.86,16.49a38.94,38.94,0,0,0,10.31,7.57,32.74,32.74,0,0,0,16.33,3.61c3.29-.17,9-.44,14.09-4.13,10.73-7.81,9.24-24.21,8.94-27.5a35.8,35.8,0,0,0-5.67-16.5A34.23,34.23,0,0,0,126,69.75a26.42,26.42,0,0,0-5.61-2.81,14,14,0,0,0-3.61-1,1.64,1.64,0,0,1-1.09-.23,1.85,1.85,0,0,1-.63-1.32,4.52,4.52,0,0,1,1.2-3.21,7.29,7.29,0,0,1,2.46-2,10.42,10.42,0,0,1,3-1,12.55,12.55,0,0,1,4.07-.35,10,10,0,0,1,4.24,1.67,34.15,34.15,0,0,1,7.87,6,51.37,51.37,0,0,1,9.54,14.7c2,4.54,5.24,12.22,4.36,22.31a33.76,33.76,0,0,1-3.78,13.52,33.08,33.08,0,0,1-8.83,10.43,28.65,28.65,0,0,1-10,5.27,31.86,31.86,0,0,1-11,.91,41.19,41.19,0,0,1-25.33-9.39c-8.92-6.78-13.52-14.64-18.16-22.63A130,130,0,0,1,64.19,77a204.57,204.57,0,0,1-9.34-45.88c-.06-.66-.08-1.06-.08-1.06,0-.38,0-.64-.07-1.45a.58.58,0,0,0,0-.29.67.67,0,0,0-.62-.32c-.65,0-1.11,1.1-1.24,1.4-.06.14-.1.26-.12.31-.49,1.54-2,18.09-3.13,25.18-.25,1.54-.47,2.6-.83,4.33a111,111,0,0,1-4,14.52c-2.92,8-4.87,13.29-10.22,17.1a21.58,21.58,0,0,1-11.69,3.87C16.58,94.85,9.91,92.19,10,90.34Z"/><path class="cls-1" d="M36.5,54.32a1.82,1.82,0,0,1-1.07-1.59c.07-.69.94-1.21,1.42-1.33a2,2,0,0,1,1,0C84.11,62.52,95,76.88,95,76.88a3.74,3.74,0,0,0,.26.34,3.26,3.26,0,0,1-.18,3.18A3.34,3.34,0,0,1,92.8,82a3.42,3.42,0,0,1-1.17-.12,4,4,0,0,1-1.32-.6c-1.48-1-16.33-11.79-24-16a75.72,75.72,0,0,0-11.43-4.56S42.13,56.08,36.5,54.32Z"/><path class="cls-1" d="M114.49,136.56c.2-.12-1.85-.14-5.3-1.1-35.55,11.66-72.85-3.73-85.72-36.13H18C41.61,151.55,95.58,147.6,114.49,136.56Z"/><path class="cls-1" d="M161.59,81.27,156.42,86l-6.11-11.54q-4.5-8.48-8.84-15.86A19.45,19.45,0,0,0,140,56.4a1,1,0,0,0-1.53-.13,4.61,4.61,0,0,0-.94,2.17,31.42,31.42,0,0,0-.62,6.18l-2.15-1.86a21.64,21.64,0,0,1,1.65-8.91c1.12-3.21,2.26-5.36,3.45-6.43a2,2,0,0,1,1.25-.61,1.24,1.24,0,0,1,1,.41A20.41,20.41,0,0,1,143.94,50l4.2,7.62a60.65,60.65,0,0,1-.74-16.72c.27-2.54.87-4.25,1.82-5.12a3.26,3.26,0,0,1,2.36-.91,2.94,2.94,0,0,1,2.92,3.15,14.09,14.09,0,0,1-1.95,4.65,20.25,20.25,0,0,0-2.27,5.9,26.66,26.66,0,0,0-.13,7,27.11,27.11,0,0,0,1.29,6.81A96.9,96.9,0,0,0,157,73.11Z"/><path class="cls-1" d="M57.92,9.16C85.16,0,101.7,3.77,111.58,8.79c18.85,9.57,32.2,29.73,32.43,30l.37.37a13.69,13.69,0,0,1,1.45-3.08c.09-.11.88-.8.69-1.05-1.26-1.72-16.83-27.29-43-33.25-6.49-1.48-23.62-4.47-47,3.45"/><polyline class="cls-2" points="25.41 138.59 0 27.48 115.71 1.03"/></g></g></svg>