<?xml version="1.0" encoding="utf-8"?>
<!-- Generator: Adobe Illustrator 24.0.2, SVG Export Plug-In . SVG Version: 6.00 Build 0)  -->
<svg version="1.1" id="Capa_1" xmlns="http://www.w3.org/2000/svg" xmlns:xlink="http://www.w3.org/1999/xlink" x="0px" y="0px"
	 viewBox="0 0 512 512" style="enable-background:new 0 0 512 512;" xml:space="preserve">
<style type="text/css">
	.st0{fill:#FFFFFF;}
	.st1{fill:#F9861C;}
	.st2{fill:#1568AD;}
</style>
<ellipse class="st0" cx="333.5" cy="288.5" rx="127.5" ry="112.5"/>
<path class="st1" d="M319.9,139.2c-1.2-5-5-6.2-7.6-8.4c-19.5-16.1-39.3-31.8-58.7-48c-6.7-5.6-10.9-13.1-7.3-22.1
	c3.7-9.3,12.1-11.7,21.2-12.1c11.4-0.6,21.3,3.4,30,10.4c50.9,40.5,102.3,80.3,152.3,121.8c79.6,66.1,76.5,181.8-5.5,244.8
	c-88.4,67.9-221.9,39-269.5-58.3c-10.3-21.1-14.6-43.6-15.8-66.7c-4.6-1.2-6.4,2.2-8.8,4c-30.2,23.5-60.3,47.1-90.4,70.8
	c-8.7,6.9-18.2,11.8-29.4,12.4c-18.7,1-29.8-13.2-24.4-31.1c3.1-10.5,9.8-18.4,18.2-25c60.7-47.2,121.4-94.4,182.1-141.7
	c0.8-0.6,1.3-1.6,1.9-2.5c-2.6-3.4-6.1-1.8-9.1-1.8c-29.6-0.2-59.2-0.1-88.9-0.2c-6.9,0-13.8-0.2-20.2-2.9
	c-14.5-6-16.9-24.7-4.4-34.3c9.6-7.3,20.9-9.2,32.7-9.1c63.6,0.1,127.1,0,190.7,0C312.7,139.2,316.1,139.2,319.9,139.2z
	 M336.6,389.4c7.1,0.2,16.1-0.5,24.8-2.8c40-10.4,68.9-33.5,80.2-74.1c10.2-36.5-0.1-68.8-27-95.1c-45.6-44.6-122.6-42-165.2,5.4
	c-19.6,21.8-28.8,47.6-24.5,76.9C232.8,352.6,278.2,389.4,336.6,389.4z"/>
<path class="st2" d="M336.2,347.1c-43.2,0.1-75.2-37.5-65-76.3c7.9-30.2,38.5-49.8,72.9-46.6c31.5,2.9,56.6,27.7,58.9,58.1
	C405.4,316.4,373.9,347,336.2,347.1z"/>
</svg>
