<?xml version="1.0" encoding="utf-8"?>
<!-- Generator: Adobe Illustrator 24.0.2, SVG Export Plug-In . SVG Version: 6.00 Build 0)  -->
<svg version="1.1" id="Capa_1" xmlns="http://www.w3.org/2000/svg" xmlns:xlink="http://www.w3.org/1999/xlink" x="0px" y="0px"
	 viewBox="0 0 24 24" style="enable-background:new 0 0 24 24;" xml:space="preserve">
<style type="text/css">
	.st0{fill:#FFFFFF;}
</style>
<path class="st0" d="M7.5,18.6l4.6-4.6l2.1,2.1L13.3,17c0.9-0.2,1.6-0.7,2.3-1.4c1-1,1.5-2.2,1.5-3.7c0-0.4,0-0.7-0.1-1.1
	c-0.1-0.4-0.2-0.7-0.4-1l-0.2-0.4l2.2-2.2L19,7.9c0.4,0.6,0.6,1.3,0.8,2c0.2,0.7,0.3,1.4,0.3,2.1c0,2.3-0.8,4.2-2.4,5.8
	c-1.3,1.3-2.9,2.1-4.7,2.3l1,1L12,23.2L7.5,18.6z M5,16.1c-0.4-0.6-0.6-1.3-0.8-2C4,13.5,3.9,12.8,3.9,12c0-2.3,0.8-4.2,2.4-5.8
	c1.3-1.3,2.9-2.1,4.7-2.3l-1-1L12,0.8l4.6,4.6L12,9.9L9.9,7.8L10.7,7C9.8,7.2,9.1,7.7,8.4,8.4c-1,1-1.5,2.2-1.5,3.7
	c0,0.4,0,0.7,0.1,1.1c0.1,0.4,0.2,0.7,0.4,1l0.2,0.4l-2.2,2.2L5,16.1z"/>
</svg>
