<svg xmlns="http://www.w3.org/2000/svg" viewBox="0 0 307.47 357.45"><defs><style>.cls-1{fill:#4A90E2;}</style></defs><title>asdjkRecurso 1s</title><g id="Capa_2" data-name="Capa 2"><g id="Capa_1-2" data-name="Capa 1"><path class="cls-1" d="M302.65,82.37c-7.37-2.89-14.81,5.93-26,10-7.61,2.75-15.32,5.2-23.93,8.1C279.82,68.17,284.72,27,278.17,0c-6.4,6.75-12.67,13.39-19,20C219.3,61.74,177,100.77,129.91,134.39,113,146.49,95.07,157.07,77.38,168c-10.12,6.25-19.54,13.38-25.81,23.83-6,9.91-8.1,20.43-3.69,31.46,1.41,3.52.58,4.4-2.67,5.76C2.07,247-13.11,291.61,12.46,334.51c1.79-3.54,3.44-7.12,5.37-10.55,11.07-19.59,29.73-28.62,52-25.28,14,2.11,25.67,9,35.76,18.53,8,7.6,14.34,12.2,17,21,2.86,9.48.2,17.49,3.57,19,3.79,1.69,10.94-6.75,12-8,9.22-10.69,38.5-32.51,119.78-79.58-7.55-22.51-8.66-40.78-8.33-53,.8-30.25,11.45-62.93,11.34-67a4.16,4.16,0,0,1,.6-2.49,5.48,5.48,0,0,1,2.54-1.82,63.86,63.86,0,0,0,14.74-9.27c10.18-8.3,17.86-17.94,22.48-29.23,3.46-8.47,8.6-17,4.88-22A7.79,7.79,0,0,0,302.65,82.37ZM122.08,267.27a38.07,38.07,0,0,1-42.81-18.75c-1.13-2.11-1.31-3.19,1.2-4.5q32.4-17,64.6-34.27c2.71-1.46,3.38-.6,3.86,1.92a95.53,95.53,0,0,1,1.93,14.3C150.67,248.05,139.81,262.89,122.08,267.27Z"/><path class="cls-1" d="M119.9,253a20.67,20.67,0,0,1-16.34-7.16c-1.5-1.65-1.48-2.58.42-3.81q11.91-7.72,23.69-15.64c1.4-.94,2.33-1.15,3,.61,1.62,4.54,3.36,9.12,3,14C133,248.78,128.1,253,119.9,253Z"/></g></g></svg>