<svg xmlns="http://www.w3.org/2000/svg" viewBox="0 0 449.87 463.85"><defs><style>.cls-1{fill:#088;}</style></defs><title>Recurso 2s</title><g id="Capa_2" data-name="Capa 2"><g id="Capa_1-2" data-name="Capa 1"><path class="cls-1" d="M188.41,431.77c.89.18,2.76-1.6,3.14-3.94,1.27,3.53.06,14.34,1.1,14.3s4.38-8.49,3.85-12.65c5.51,8.87-.55,34.37-.55,34.37C57.1,434.43-1.43,327.7,0,231.2,1.09,160.82,33.82,95.64,75.76,59.81,141.49,3.65,229.07-18,316.55,16.82c0,0-42.37,39.7-81.22,80.38-34.91,36.54-42.71,46-42.83,75.38-.17,41.32,39.44,57.49,36.76,80.22-.92,7.83-1.57,14.14-9.75,12.75-10-1.7-63.53-3.36-90.13,16.64,0,0-30.16,14.74-23.61,32.44,0,0-1,.71-6.27,4.76s-50.65,30.21-.85,65.75h2.55s.83-13.67,2-16.76,32.89-13.46,32.89-13.46,10.64-1.49,15.53,3,38.94,28.73,35.11,71.5Zm78.54-324,82.4-75.29-20.53-11-66.07,82.41-16.16,21.25Zm106.4-53.51c3.79-2.36,3.23-4.19,3.23-4.19l-9.1-7.23L338.29,78.16S370,56.3,373.35,54.23Z"/><path class="cls-1" d="M265.19,187.27c11.64-10.4,23.73-20.21,36.15-29.64,6.18-4.77,12.53-9.29,18.91-13.83s13-8.82,19.61-13.08,13.5-8.27,20.59-12.1c1.77-1,3.56-1.91,5.38-2.82s3.64-1.82,5.5-2.71,3.76-1.73,5.65-2.59,3.88-1.64,5.89-2.4A101.89,101.89,0,0,1,395.65,104a56.88,56.88,0,0,1,15.82-1.8c.4,0,.76,0,1.18.06l1.25.13c.86.12,1.65.18,2.56.36s1.82.4,2.73.62,1.94.61,2.9.94a23.81,23.81,0,0,1,3,1.32c.5.26,1,.51,1.5.79s1,.64,1.51,1,1,.68,1.48,1,1,.79,1.43,1.2a25.59,25.59,0,0,1,2.66,2.65,29,29,0,0,1,4.07,6.11,31.84,31.84,0,0,1,1.34,3.12c.18.52.36,1,.53,1.55s.28,1,.41,1.48a40.56,40.56,0,0,1,1.21,10.55,60.12,60.12,0,0,1-.75,8.49c-.41,2.61-.93,5-1.53,7.35a131.18,131.18,0,0,1-4.11,13,244.24,244.24,0,0,1-10.13,23c-3.65,7.28-7.42,14.34-11.36,21.25q-2.94,5.18-5.94,10.28l-6.09,10.11c-16.36,26.75-33.69,52.32-50.79,77.71q-6.42,9.5-12.76,19t-12.53,18.91C317,356.72,309,369.36,302,381.89c-3.5,6.26-6.73,12.52-9.38,18.51-1.3,3-2.42,5.91-3.27,8.54-.44,1.33-.77,2.56-1,3.66a24,24,0,0,0-.5,2.7c-.09.65-.08,1-.22.78a8.75,8.75,0,0,0-1.18-1.82,6.38,6.38,0,0,0-2.25-1.7c-.56-.2-.64-.05-.23.13a16.07,16.07,0,0,0,5.82.57,66.07,66.07,0,0,0,9-1,164.14,164.14,0,0,0,20.15-5.16c6.89-2.15,13.82-4.67,20.75-7.33s13.84-5.54,20.74-8.56c1.79-.76,3.35-1.52,5-2.28l5-2.28,4.88-2.48c1.64-.82,3.27-1.65,4.86-2.56l4.83-2.66c1.61-.89,3.15-1.89,4.74-2.83,3.2-1.86,6.2-4,9.35-6q9.21-6.27,18-13.4a284.89,284.89,0,0,0,32.89-32,185.12,185.12,0,0,1-23.63,40.87,208.92,208.92,0,0,1-15.61,18.27c-2.82,2.87-5.67,5.75-8.69,8.44-1.5,1.35-3,2.76-4.51,4.08l-4.66,3.92c-.78.65-1.54,1.33-2.36,1.94L388,404.1l-4.88,3.7c-1.67,1.18-3.36,2.32-5.05,3.48s-3.41,2.35-5,3.39c-6.64,4.32-13.44,8.49-20.41,12.43s-14.12,7.68-21.57,11.16a178.26,178.26,0,0,1-23.74,9.17,94.78,94.78,0,0,1-13.74,3.1,56.09,56.09,0,0,1-17.18,0,36.85,36.85,0,0,1-11.09-3.68,33.39,33.39,0,0,1-5.81-3.85,32.68,32.68,0,0,1-5.1-5.34,35,35,0,0,1-5.9-12.27,44,44,0,0,1-1.35-10.69,59.63,59.63,0,0,1,.6-8.79c.37-2.69.85-5.23,1.42-7.62a118.16,118.16,0,0,1,4-13.36,222.88,222.88,0,0,1,10.11-23.35c7.29-14.72,15.33-28.42,23.58-41.84,4.15-6.7,8.38-13.29,12.62-19.84s8.58-13,12.91-19.43c17.33-25.69,35.2-50.68,52.32-75.63,8.5-12.49,16.9-24.94,24.41-37.41,3.75-6.21,7.27-12.44,10.23-18.48,1.45-3,2.79-6,3.79-8.71.52-1.37,1-2.67,1.29-3.84a30.31,30.31,0,0,0,.73-3c.15-.73.16-1.14.31-.93,0,0,0,0,.07.08a.56.56,0,0,0,.09.17c.08.08.15.31.28.45a7.14,7.14,0,0,0,1,1.24,4.33,4.33,0,0,0,2.26,1.34c.05,0,.2,0,.19,0s-.05,0-.07-.1-.2-.07-.29-.13l-.17-.08a1.67,1.67,0,0,0-.26-.06,22.84,22.84,0,0,0-7.14-.15,78,78,0,0,0-9.59,1.61,204.56,204.56,0,0,0-20.68,6c-7,2.4-14,5.06-21.08,7.83-14.09,5.57-28.15,11.7-42.28,17.87S279.56,181.18,265.19,187.27Z"/></g></g></svg>