<?xml version="1.0" encoding="utf-8"?>
<!-- Generator: Adobe Illustrator 24.0.2, SVG Export Plug-In . SVG Version: 6.00 Build 0)  -->
<svg version="1.1" id="Capa_1" xmlns="http://www.w3.org/2000/svg" xmlns:xlink="http://www.w3.org/1999/xlink" x="0px" y="0px"
	 viewBox="0 0 180 180" style="enable-background:new 0 0 180 180;" xml:space="preserve">
<style type="text/css">
	.st0{fill:none;}
	.st1{fill:#008888;}
</style>
<title>Recurso 19s</title>
<rect class="st0" width="180" height="180"/>
<g>
	<path class="st1" d="M90,13L90,13C43.9,13,6.5,50.4,6.5,96.5c0,0,0,0,0,0l0,0C6.5,142.6,43.9,180,90,180c0,0,0,0,0,0l0,0
		c46.1,0,83.5-37.4,83.5-83.5c0,0,0,0,0,0l0,0C173.5,50.4,136.1,13,90,13C90,13,90,13,90,13z M146.2,96.5c0,31-25.2,56.2-56.2,56.2
		l0,0l0,0c-31,0-56.2-25.2-56.2-56.2l0,0l0,0c0-31,25.2-56.2,56.2-56.2l0,0l0,0C121,40.3,146.2,65.5,146.2,96.5L146.2,96.5z"/>
	<path d="M90,40.3L90,40.3c31.1,0,56.2,25.2,56.2,56.2v0c0,31-25.2,56.2-56.2,56.2h0c-31,0-56.2-25.2-56.2-56.2v0
		C33.8,65.5,59,40.3,90,40.3z"/>
</g>
</svg>
