<?xml version="1.0" encoding="utf-8"?>
<!-- Generator: Adobe Illustrator 24.0.2, SVG Export Plug-In . SVG Version: 6.00 Build 0)  -->
<svg version="1.1" id="flags" xmlns="http://www.w3.org/2000/svg" xmlns:xlink="http://www.w3.org/1999/xlink" x="0px" y="0px"
	 viewBox="0 0 128 128" style="enable-background:new 0 0 128 128;" xml:space="preserve">
<style type="text/css">
	.st0{fill:#008888;}
</style>
<g>
	<path class="st0" d="M95,73.5H67c-4.1,0-7.5-3.4-7.5-7.5v-3c0-0.3-0.2-0.5-0.5-0.5H47c-1.9,0-3.5-1.6-3.5-3.5s1.6-3.5,3.5-3.5h12
		c4.1,0,7.5,3.4,7.5,7.5v3c0,0.3,0.2,0.5,0.5,0.5h28c0.3,0,0.5-0.2,0.5-0.5V50c0-0.3-0.2-0.5-0.5-0.5h-9c-4.1,0-7.5-3.4-7.5-7.5v-3
		c0-0.3-0.2-0.5-0.5-0.5H38c-1.9,0-3.5-1.6-3.5-3.5s1.6-3.5,3.5-3.5h40c4.1,0,7.5,3.4,7.5,7.5v3c0,0.3,0.2,0.5,0.5,0.5h9
		c4.1,0,7.5,3.4,7.5,7.5v16C102.5,70.1,99.1,73.5,95,73.5z"/>
</g>
<g>
	<path class="st0" d="M57.5,106.5c-1.5,0-2.9-1-3.4-2.5L34.6,37c-0.5-1.9,0.5-3.8,2.4-4.3c1.9-0.5,3.8,0.5,4.3,2.4l19.5,67
		c0.5,1.9-0.5,3.8-2.4,4.3C58.2,106.5,57.8,106.5,57.5,106.5z"/>
</g>
</svg>
