<svg xmlns="http://www.w3.org/2000/svg" viewBox="0 0 113 113"><defs><style>.cls-1{fill:#088;}.cls-2{fill:none;}</style></defs><title>Recurso 1s</title><g id="Capa_2" data-name="Capa 2"><g id="flags"><path class="cls-1" d="M87,66.5H59A7.55,7.55,0,0,1,51.5,59V56a.47.47,0,0,0-.5-.5H39a3.5,3.5,0,0,1,0-7H51A7.55,7.55,0,0,1,58.5,56v3a.47.47,0,0,0,.5.5H87a.47.47,0,0,0,.5-.5V43a.47.47,0,0,0-.5-.5H78A7.55,7.55,0,0,1,70.5,35V32a.47.47,0,0,0-.5-.5H30a3.5,3.5,0,0,1,0-7H70A7.55,7.55,0,0,1,77.5,32v3a.47.47,0,0,0,.5.5h9A7.55,7.55,0,0,1,94.5,43V59A7.55,7.55,0,0,1,87,66.5Z"/><path class="cls-1" d="M49.5,99.5A3.63,3.63,0,0,1,46.1,97L26.6,30a3.48,3.48,0,0,1,6.7-1.9l19.5,67a3.43,3.43,0,0,1-2.4,4.3A2.48,2.48,0,0,1,49.5,99.5Z"/><rect class="cls-2" width="113" height="113"/></g></g></svg>