<?xml version="1.0" encoding="utf-8"?>
<!-- Generator: Adobe Illustrator 24.0.2, SVG Export Plug-In . SVG Version: 6.00 Build 0)  -->
<svg version="1.1" id="Capa_1" xmlns="http://www.w3.org/2000/svg" xmlns:xlink="http://www.w3.org/1999/xlink" x="0px" y="0px"
	 viewBox="0 0 128 128" style="enable-background:new 0 0 128 128;" xml:space="preserve">
<style type="text/css">
	.st0{fill:#F34F29;}
	.st1{fill:none;}
</style>
<path class="st0" d="M123.4,58.5L69.2,4.3C66,1.2,61,1.2,57.9,4.3L46.6,15.6l14.3,14.3c3.3-1.1,7.1-0.4,9.8,2.3
	c2.7,2.7,3.4,6.5,2.3,9.8l13.8,13.8c3.3-1.1,7.2-0.4,9.8,2.3c3.7,3.7,3.7,9.7,0,13.4c-3.7,3.7-9.7,3.7-13.5,0
	c-2.8-2.8-3.5-6.9-2.1-10.3L68.1,48.2l0,33.8c0.9,0.4,1.8,1,2.5,1.8c3.7,3.7,3.7,9.7,0,13.5c-3.7,3.7-9.7,3.7-13.4,0
	c-3.7-3.7-3.7-9.7,0-13.5c0.9-0.9,2-1.6,3.1-2.1V47.6c-1.1-0.5-2.2-1.2-3.1-2.1c-2.8-2.8-3.5-6.9-2-10.4L41.1,21.1L3.9,58.2
	c-3.1,3.1-3.1,8.2,0,11.3l54.2,54.2c3.1,3.1,8.2,3.1,11.3,0l53.9-53.9C126.5,66.7,126.5,61.6,123.4,58.5z"/>
<path class="st1" d="M1.6,37.9h124.8v52.1H1.6L1.6,37.9z"/>
</svg>
