<?xml version="1.0" encoding="utf-8"?>
<!-- Generator: Adobe Illustrator 24.0.2, SVG Export Plug-In . SVG Version: 6.00 Build 0)  -->
<svg version="1.1" id="Capa_1" xmlns="http://www.w3.org/2000/svg" xmlns:xlink="http://www.w3.org/1999/xlink" x="0px" y="0px"
	 viewBox="0 0 128 128" style="enable-background:new 0 0 128 128;" xml:space="preserve">
<style type="text/css">
	.st0{fill-rule:evenodd;clip-rule:evenodd;fill:#888888;}
	.st1{fill:#888888;}
</style>
<g>
	<path class="st0" d="M64,2.5C29.3,2.5,1.1,30.7,1.1,65.4c0,27.8,18,51.4,43,59.7c3.1,0.6,4.3-1.4,4.3-3c0-1.5-0.1-6.5-0.1-11.7
		c-17.5,3.8-21.2-7.4-21.2-7.4c-2.9-7.3-7-9.2-7-9.2c-5.7-3.9,0.4-3.8,0.4-3.8c6.3,0.4,9.6,6.5,9.6,6.5c5.6,9.6,14.7,6.8,18.3,5.2
		c0.6-4.1,2.2-6.8,4-8.4c-14-1.6-28.6-7-28.6-31.1c0-6.9,2.5-12.5,6.5-16.9c-0.7-1.6-2.8-8,0.6-16.6c0,0,5.3-1.7,17.3,6.4
		c5-1.4,10.4-2.1,15.7-2.1c5.3,0,10.7,0.7,15.8,2.1c12-8.1,17.3-6.4,17.3-6.4c3.4,8.7,1.3,15.1,0.6,16.6c4,4.4,6.5,10,6.5,16.9
		c0,24.1-14.7,29.5-28.7,31c2.3,2,4.3,5.8,4.3,11.6c0,8.4-0.1,15.2-0.1,17.3c0,1.7,1.1,3.6,4.3,3c25-8.3,43-31.9,43-59.7
		C126.9,30.7,98.7,2.5,64,2.5z"/>
	<path class="st1" d="M24.9,92.8c-0.1,0.3-0.6,0.4-1.1,0.2c-0.5-0.2-0.7-0.6-0.6-0.9c0.1-0.3,0.6-0.4,1.1-0.2
		C24.8,92,25.1,92.5,24.9,92.8L24.9,92.8z M27.5,95.6c-0.3,0.3-0.9,0.1-1.3-0.3c-0.4-0.4-0.5-1-0.2-1.3c0.3-0.3,0.9-0.1,1.3,0.3
		C27.7,94.8,27.8,95.4,27.5,95.6L27.5,95.6z M30,99.3c-0.4,0.3-1,0-1.4-0.5c-0.4-0.6-0.4-1.2,0-1.5c0.4-0.3,1,0,1.4,0.5
		C30.4,98.3,30.4,99,30,99.3L30,99.3z M33.4,102.8c-0.3,0.4-1.1,0.3-1.6-0.2c-0.5-0.5-0.7-1.2-0.4-1.6c0.4-0.4,1.1-0.3,1.6,0.2
		C33.6,101.7,33.7,102.4,33.4,102.8L33.4,102.8z M38,104.8c-0.2,0.5-0.9,0.7-1.6,0.5c-0.7-0.2-1.2-0.8-1-1.3
		c0.1-0.5,0.9-0.7,1.6-0.5C37.7,103.7,38.2,104.3,38,104.8L38,104.8z M43.2,105.2c0,0.5-0.6,0.9-1.3,1c-0.8,0-1.4-0.4-1.4-0.9
		c0-0.5,0.6-0.9,1.3-1C42.6,104.2,43.2,104.6,43.2,105.2z M48,104.3c0.1,0.5-0.4,1-1.2,1.2c-0.7,0.1-1.4-0.2-1.5-0.7
		c-0.1-0.5,0.4-1,1.2-1.2C47.2,103.5,47.9,103.8,48,104.3L48,104.3z"/>
</g>
</svg>
