<svg xmlns="http://www.w3.org/2000/svg" viewBox="0 0 27 21"><defs><style>.cls-1{fill:#008888;}</style></defs><title>Recurso 14s</title><g id="Capa_2" data-name="Capa 2"><g id="Capa_2-2" data-name="Capa 2"><g id="Layer_1" data-name="Layer 1"><path class="cls-1" d="M26.94,2.38h0a2.67,2.67,0,0,0-.09-.26h0a1.4,1.4,0,0,0-.09-.29h0a.64.64,0,0,0-.08-.14h0c-.07-.13-.13-.25-.21-.37h0a1.07,1.07,0,0,0-.14-.16h0a2.17,2.17,0,0,0-.24-.29h0A1.84,1.84,0,0,0,25.87.7h0L25.56.45l-.18-.1h0L25.12.22h0a1,1,0,0,1-.28-.09h0L24.56.06h0L24.2,0H24a3.15,3.15,0,0,0-.43.05h-.18a3.5,3.5,0,0,0-.55.17h0L22.69.3h0a1.9,1.9,0,0,0-.37.2h0l-8.4,5.89L4.61.47,4.5.42,4.34.33h0L4.18.24h0L3.91.16h0L3.62.06H3.45L3,0H2.44L2.16.07h0a.35.35,0,0,0-.28.09h0A3,3,0,0,0,0,3V19a2,2,0,0,0,2,2H6V8.46l8.08,5.15L21,8.76V21h4a2,2,0,0,0,2-2V3A3.18,3.18,0,0,0,26.94,2.38Z"/></g></g></g></svg>