<?xml version="1.0" encoding="utf-8"?>
<!-- Generator: Adobe Illustrator 24.0.2, SVG Export Plug-In . SVG Version: 6.00 Build 0)  -->
<svg version="1.1" id="Capa_1" xmlns="http://www.w3.org/2000/svg" xmlns:xlink="http://www.w3.org/1999/xlink" x="0px" y="0px"
	 viewBox="0 0 24 24" style="enable-background:new 0 0 24 24;" xml:space="preserve">
<style type="text/css">
	.st0{fill:#FFFFFF;}
</style>
<g>
	<rect x="10.8" y="1.4" class="st0" width="2.4" height="21.1"/>
</g>
<g>
	<path class="st0" d="M8.6,3.1H8.2c-2.4,0-3.9,1.4-3.9,3.6c0,0.4,0,0.7,0.1,1c0,0.2,0,0.4,0,0.6v0.1l0,0.1l0,0.2
		C4.6,9.2,4.6,9.6,4.6,10c0,0.4,0,0.5-0.6,0.5H2.9L3,11.6l0.1,1l0.1,0.9h0.9c0.6,0,0.6,0.2,0.6,0.5c0,0.3-0.1,0.8-0.2,1.4
		c-0.1,0.7-0.2,1.3-0.2,1.8c0,2.3,1.5,3.7,3.9,3.7h0.4h1v-1v-1v-1h-1H8.2c-0.3,0-0.5,0-0.5-0.9c0-0.4,0-0.8,0.1-1.2l0-0.1v-0.1
		c0-0.2,0-0.4,0-0.7c0-0.3,0.1-0.5,0.1-0.8c0-1-0.3-1.7-0.6-2.2c0.4-0.5,0.6-1.1,0.6-2.1c0-0.5,0-1-0.1-1.6c0-0.3,0-0.5-0.1-0.7
		c0-0.2,0-0.4,0-0.6c0-0.7,0.2-0.7,0.5-0.7h0.4h1v-1V4.1v-1H8.6z"/>
	<path class="st0" d="M15.4,20.9h0.4c2.4,0,3.9-1.4,3.9-3.6c0-0.4,0-0.7-0.1-1c0-0.2,0-0.4,0-0.6v-0.1l0-0.1l0-0.2
		c-0.1-0.5-0.1-0.9-0.1-1.3c0-0.4,0-0.5,0.6-0.5h1.1L21,12.4l-0.1-1l-0.1-0.9h-0.9c-0.6,0-0.6-0.2-0.6-0.5c0-0.3,0.1-0.8,0.2-1.4
		c0.1-0.7,0.2-1.3,0.2-1.8c0-2.3-1.5-3.7-3.9-3.7h-0.4h-1v1v1v1h1h0.4c0.3,0,0.5,0,0.5,0.9c0,0.4,0,0.8-0.1,1.2l0,0.1v0.1
		c0,0.2,0,0.4,0,0.7c0,0.3-0.1,0.5-0.1,0.8c0,1,0.3,1.7,0.6,2.2c-0.4,0.5-0.6,1.1-0.6,2.1c0,0.5,0,1,0.1,1.6c0,0.3,0,0.5,0.1,0.7
		c0,0.2,0,0.4,0,0.6c0,0.7-0.2,0.7-0.5,0.7h-0.4h-1v1v1.1v1H15.4z"/>
</g>
</svg>
