<svg xmlns="http://www.w3.org/2000/svg" viewBox="0 0 667 667"><defs><style>.cls-1{fill:#fff;}.cls-2{fill:none;}</style></defs><title>Recurso 2s</title><g id="Capa_2" data-name="Capa 2"><g id="Capa_1-2" data-name="Capa 1"><path class="cls-1" d="M165.06,328.44h-6c-2.4,24.58-5.78,54.47-48.19,54.47H91.32c-11.31,0-11.8-1.7-11.8-9.65V245.31c0-8.19,0-11.57,22.65-11.57h8v-7.22c-8.67.72-30.36.72-40.25.72-9.38,0-28.18,0-36.37-.72v7.22H39c18.56,0,19,2.65,19,11.33v126.5c0,8.67-.47,11.34-19,11.34H33.5v7.46H158.56l6.5-61.93Z"/><path class="cls-1" d="M161,226.27c-1-2.88-1.45-3.85-4.58-3.85s-3.85,1-4.82,3.85l-38.8,98.32c-1.68,4.09-4.57,11.57-19.51,11.57v6h37.35v-6c-7.47,0-12.05-3.38-12.05-8.2a10.8,10.8,0,0,1,.73-3.38l8.18-20.71h47.72l9.63,24.57a8.3,8.3,0,0,1,1,2.89c0,4.83-9.15,4.83-13.74,4.83v6h47.47v-6h-3.37c-11.33,0-12.53-1.69-14.21-6.5L161,226.28Zm-9.63,17.12,21.43,54.45H129.89l21.45-54.46Z"/><path class="cls-1" d="M354,228H207.24l-4.34,54h5.79c3.37-38.79,7-46.75,43.37-46.75,4.33,0,10.6,0,13,.5,5.06.95,5.06,3.6,5.06,9.15v126.5c0,8.2,0,11.58-25.3,11.58h-9.63v7.46c9.87-.73,34.21-.73,45.3-.73s35.9,0,45.78.73v-7.46h-9.63c-25.3,0-25.3-3.38-25.3-11.58V244.83c0-4.82,0-8.2,4.33-9.16,2.65-.48,9.15-.48,13.73-.48,36.15,0,39.76,7.95,43.12,46.75h6L354,228Z"/><path class="cls-1" d="M483.14,382.67h-6c-6,36.86-11.56,54.45-52.76,54.45H392.54c-11.33,0-11.82-1.69-11.82-9.64v-64.1h21.45c23.38,0,26,7.71,26,28.19h6V328h-6c0,20.48-2.65,28-26,28H380.72V298.32c0-7.95.49-9.63,11.82-9.63h30.83c36.88,0,43.14,13.25,47,46.74h6l-6.75-54H334.71v7.22h5.55c18.55,0,19,2.65,19,11.33V425.79c0,8.68-.49,11.33-19,11.33h-5.55v7.46H473l10.13-61.92Z"/><path class="cls-1" d="M555.66,297.59l33-48.18c5.07-7.72,13.25-15.43,34.7-15.67v-7.22H566v7.22c9.65.25,15,5.54,15,11.09,0,2.4-.48,2.89-2.17,5.54l-27.48,40.49-30.83-46.28c-.49-.71-1.69-2.65-1.69-3.61,0-2.89,5.3-7,15.42-7.23v-7.22c-8.2.72-25.78.72-34.93.72-7.48,0-22.42-.25-31.33-.72v7.22h4.58c13.25,0,17.82,1.69,22.41,8.44L539,308.93,499.76,367c-3.37,4.83-10.6,15.92-34.7,15.92v7.46h57.35v-7.46c-11.07-.25-15.17-6.75-15.17-11.09,0-2.18.72-3.13,2.41-5.79l34-50.36L581.69,373c.49,1,1.21,1.92,1.21,2.65,0,2.9-5.3,7-15.66,7.24v7.46c8.44-.73,26-.73,34.94-.73,10.12,0,21.2.25,31.32.73v-7.46h-4.57c-12.54,0-17.59-1.22-22.65-8.68l-50.62-76.62Z"/><rect class="cls-2" width="667" height="667"/></g></g></svg>