<?xml version="1.0" encoding="utf-8"?>
<!-- Generator: Adobe Illustrator 24.0.2, SVG Export Plug-In . SVG Version: 6.00 Build 0)  -->
<svg version="1.1" id="Capa_1" xmlns="http://www.w3.org/2000/svg" xmlns:xlink="http://www.w3.org/1999/xlink" x="0px" y="0px"
	 viewBox="0 0 114.6 114.6" style="enable-background:new 0 0 114.6 114.6;" xml:space="preserve">
<style type="text/css">
	.st0{fill:#FF3939;}
</style>
<title>Recurso 21s</title>
<g id="Capa_2_1_">
	<g id="Capa_2-2">
		<path class="st0" d="M109.6,52.3h-9.8c-0.9-7.9-4-15.3-8.9-21.5l6.9-6.9c1.9-2,1.9-5.2-0.1-7.1c-1.9-1.9-5-1.9-6.9,0l-6.9,6.9
			c-6.2-4.9-13.7-8-21.5-8.9V5c0-2.8-2.2-5-5-5s-5,2.2-5,5v9.8c-7.9,0.9-15.3,4.1-21.5,9l-6.9-6.9c-2-1.9-5.2-1.9-7.1,0.1
			c-1.9,1.9-1.9,5,0,6.9l6.9,6.9c-4.9,6.2-8,13.7-8.9,21.5H5c-2.8,0-5,2.2-5,5s2.2,5,5,5h9.8c0.9,7.9,4.1,15.3,9,21.5l-6.9,6.9
			c-2,1.9-2,5.1-0.1,7.1s5.1,2,7.1,0.1c0,0,0.1-0.1,0.1-0.1l6.9-6.9c6.2,4.9,13.7,8,21.5,8.9v9.8c0,2.8,2.2,5,5,5s5-2.2,5-5v-9.8
			c7.9-0.9,15.3-4,21.5-8.9l6.9,6.9c2,1.9,5.2,1.9,7.1-0.1c1.9-1.9,1.9-5,0-6.9L91,83.9c4.9-6.2,8-13.7,8.9-21.5h9.8
			c2.8,0,5-2.2,5-5S112.4,52.3,109.6,52.3L109.6,52.3z M47.7,63.2c-8.7,0-15.8-7.1-15.8-15.8S39,31.7,47.7,31.7s15.8,7.1,15.8,15.8
			l0,0C63.4,56.1,56.4,63.2,47.7,63.2z"/>
	</g>
</g>
</svg>
