<svg xmlns="http://www.w3.org/2000/svg" viewBox="0 0 179.53 97.22"><defs><style>.cls-1{fill:#0f0d0a;}.cls-2{fill:#6280bc;}.cls-3{fill:#dcd000;}.cls-4{fill:#d4782f;}.cls-5{fill:#ddd100;}.cls-6{fill:#d5792f;}.cls-7{fill:#92267e;}.cls-8{fill:#dbcf00;}.cls-9{fill:#6281bc;}.cls-10{fill:#617fb9;}.cls-11{fill:#d1772f;}.cls-12{fill:#b5ab00;}.cls-13{fill:#0d1016;}.cls-14{fill:#ba6b2a;}</style></defs><title>Recurso 2s</title><g id="Capa_2" data-name="Capa 2"><g id="Capa_1-2" data-name="Capa 1"><path class="cls-1" d="M124.83,36.84c5.13-2.17,9.57-3.9,13.87-5.94a6.68,6.68,0,0,1,6.5,0q15.21,7.44,30.62,14.49c2.24,1,3.2,2.28,3.19,4.85q0,12,.51,23.94c.12,2.59-.74,3.87-3,4.94Q161.67,86.14,147,93.5a5.55,5.55,0,0,1-6-.09c-5-2.89-10.38-5.28-15.3-8.36-3-1.88-5.28-1.51-8.17.08-7,3.84-14.2,7.24-21.18,11.08-2.67,1.47-4.7,1.29-7.28-.21-7.76-4.51-15.74-8.62-23.49-13.12a5.77,5.77,0,0,0-6.38-.22c-6,3.16-12.26,5.94-18.28,9.1A5.54,5.54,0,0,1,35,91.61q-15.69-8.69-31.59-17C1.07,73.39-.08,72.14,0,69.31c.24-7.48.22-15,0-22.45-.07-2.79.89-4.11,3.41-5.16,9.67-4,19.36-8,28.78-12.5,3.92-1.88,6.64-.26,9.74,1.2,9.87,4.64,9.87,4.65,9.87-6,0-9.92,0-9.92,9.12-13.7,8-3.31,16-6.57,23.91-10a6.72,6.72,0,0,1,6.08.09Q106,7.9,121.28,14.64c2.68,1.18,3.75,2.66,3.62,5.61C124.67,25.51,124.83,30.8,124.83,36.84ZM37,63.35l-2-.81L3.06,47c0,7.43.07,13.9,0,20.37a4.14,4.14,0,0,0,2.52,4.3c9.44,4.86,18.8,9.85,28.2,14.79,1,.21,2.2,3.5,2.86-.23l.45-12.92c1.8-3.54,1-7.24.67-10.9a3.64,3.64,0,0,0-.61.49C37,63,37,63.19,37,63.35ZM91.26,77.83l.08-9.66a1.28,1.28,0,0,0-1.11-1.3L57.89,51.17c0,7.44.14,13.91-.07,20.36-.09,2.73.84,4.13,3.24,5.36,9,4.62,17.83,9.5,26.78,14.19,1,.51,2,2.12,3.44.67A37.87,37.87,0,0,0,91.26,77.83ZM58.26,15c7.25,4,13.66,7.57,20.18,11C89.5,31.7,89.53,31.64,101,25.86c2.22-1.12,4.47-2.2,6.64-3.4,3.33-1.84,7.07-3,10.35-5.82C108.3,12.2,99.11,8,90,3.73a5.93,5.93,0,0,0-5.23-.13C76.21,7.3,67.68,10.94,58.26,15Zm2.08,33.73C71,53.84,80.88,58.57,90.74,63.35a3.83,3.83,0,0,0,3.73.15c8.72-4.24,17.48-8.4,27.08-13-10.48-4.83-20.11-9.25-29.72-13.69A3.33,3.33,0,0,0,89,36.71Zm3.1-4.5C53.79,39.77,45.67,36,37.55,32.28A4.17,4.17,0,0,0,33.79,32c-9.1,3.9-18.24,7.7-27.37,11.53.54,1.35,1.58,1.57,2.44,2,6.23,3.36,12.77,6.08,18.91,9.7,3.32,2,7.19,5.34,10.91,4.32C44,58.15,50,55.79,53.43,51.86,56,49,57.74,45.5,63.44,44.22Zm109.1,3.29c-6.58-3-12.69-5.25-18.12-8.56-8.51-5.2-16.37-5.72-25.37-.79-4.5,2.47-5,6.1-3.67,8.77,1.83,3.62,2.81,8.65,8.39,9.69,2.83.52,5.42,2.44,8,3.85a5,5,0,0,0,5.15.23C155.17,56.4,163.42,52.21,172.54,47.51ZM95.17,92.76c10.08-4.82,19-9.1,28-13.35a2.69,2.69,0,0,0,1.52-2.84c0-7.61,0-15.22,0-23.9-10.1,5-19,9.46-27.88,13.83-1.72.85-1.62,2.27-1.61,3.79C95.18,77.43,95.17,84.57,95.17,92.76Zm80.66-42.71c-9.42,4.85-17.94,9.27-26.49,13.62-1.91,1-2.43,2.41-2.4,4.44.09,6,.15,12,0,17.92-.09,3.25.89,3.74,3.7,2.3,7.52-3.85,15.12-7.58,22.72-11.31,1.63-.8,2.55-1.77,2.52-3.78C175.77,65.8,175.83,58.35,175.83,50.05ZM54.9,18.12c0,5.08-.12,9.21.05,13.33.08,2-1.23,4.77,1.49,5.73,4.2,1.48,7.66,5.92,12.64,4.22,5.92-2,11.61-4.72,18.11-7.42Zm39,15.67c8.82,4.05,16.75,7.72,24.72,11.32,2.15,1,3.09-.06,3.08-2.27,0-6.64,0-13.28,0-19.93,0-2-.41-2.83-2.55-1.74C111.07,25.28,102.91,29.31,93.92,33.79Zm48.86,44c0-13.44,0-13.38-11.53-18.4-2.52-1.09-3.56-1.07-3.46,2.07.16,5.32.86,10.81-.21,15.91-.87,4.16.65,5.36,3.68,6.59,3.66,1.49,7.88,6.17,10.37,4.68C144.84,86.71,142.07,81,142.78,77.79Zm-84,1.57c-5.82-2.6-3.5-7.06-3.94-10.74-.48-4,1.78-10.29-1-11.53-3.08-1.37-7.41,3.26-11.35,5-1.86.8-2.22,2.18-2.14,4,.25,6.31.49,12.62.6,18.94,0,2.52,1,2.84,3,1.8C48.54,84.47,53.14,82.19,58.79,79.36Z"/><path class="cls-2" d="M58.26,15C67.68,10.94,76.21,7.3,84.72,3.6A5.93,5.93,0,0,1,90,3.73c9.16,4.27,18.35,8.47,28,12.91-3.28,2.8-7,4-10.35,5.82-2.17,1.2-4.42,2.28-6.64,3.4C89.53,31.64,89.5,31.7,78.44,26,71.92,22.56,65.51,18.94,58.26,15Z"/><path class="cls-3" d="M60.34,48.72,89,36.71a3.33,3.33,0,0,1,2.87.12c9.61,4.44,19.24,8.86,29.72,13.69-9.6,4.58-18.36,8.74-27.08,13a3.83,3.83,0,0,1-3.73-.15C80.88,58.57,71,53.84,60.34,48.72Z"/><path class="cls-4" d="M63.44,44.22c-5.7,1.28-7.42,4.73-10,7.64C50,55.79,44,58.15,38.68,59.61c-3.72,1-7.59-2.36-10.91-4.32C21.63,51.67,15.09,49,8.86,45.59c-.86-.46-1.9-.68-2.44-2C15.55,39.73,24.69,35.93,33.79,32a4.17,4.17,0,0,1,3.76.25C45.67,36,53.79,39.77,63.44,44.22Z"/><path class="cls-5" d="M91.28,91.75c-1.45,1.45-2.46-.16-3.44-.67-9-4.69-17.8-9.57-26.78-14.19-2.4-1.23-3.33-2.63-3.24-5.36.21-6.45.07-12.92.07-20.36l32.34,15.7,1.11,1.3q0,4.83-.08,9.67A56.3,56.3,0,0,0,91.28,91.75Z"/><path class="cls-6" d="M33.74,86.44C24.34,81.5,15,76.51,5.54,71.65A4.14,4.14,0,0,1,3,67.35c.11-6.47,0-12.94,0-20.37L35,62.54a1.84,1.84,0,0,0,1.63,1.81l.41,8.94L36.6,86.21Z"/><path class="cls-7" d="M172.54,47.51c-9.12,4.7-17.37,8.89-25.57,13.19a5,5,0,0,1-5.15-.23c-2.63-1.41-5.22-3.33-8-3.85-5.58-1-6.56-6.07-8.39-9.69-1.35-2.67-.83-6.3,3.67-8.77,9-4.93,16.86-4.41,25.37.79C159.85,42.26,166,44.46,172.54,47.51Z"/><path class="cls-8" d="M95.17,92.76c0-8.19,0-15.33,0-22.47,0-1.52-.11-2.94,1.61-3.79,8.9-4.37,17.78-8.81,27.88-13.83,0,8.68,0,16.29,0,23.9a2.69,2.69,0,0,1-1.52,2.84C114.19,83.66,105.25,87.94,95.17,92.76Z"/><path class="cls-7" d="M175.83,50.05c0,8.3-.06,15.75,0,23.19,0,2-.89,3-2.52,3.78-7.6,3.73-15.2,7.46-22.72,11.31-2.81,1.44-3.79,1-3.7-2.3.16-6,.1-12,0-17.92,0-2,.49-3.47,2.4-4.44C157.89,59.32,166.41,54.9,175.83,50.05Z"/><path class="cls-9" d="M54.9,18.12,87.19,34c-6.5,2.7-12.19,5.4-18.11,7.42-5,1.7-8.44-2.74-12.64-4.22-2.72-1-1.41-3.75-1.49-5.73C54.78,27.33,54.9,23.2,54.9,18.12Z"/><path class="cls-10" d="M93.92,33.79c9-4.48,17.15-8.51,25.27-12.62,2.14-1.09,2.56-.25,2.55,1.74,0,6.65,0,13.29,0,19.93,0,2.21-.93,3.23-3.08,2.27C110.67,41.51,102.74,37.84,93.92,33.79Z"/><path class="cls-7" d="M142.78,77.79c-.71,3.24,2.06,8.92-1.15,10.85-2.49,1.49-6.71-3.19-10.37-4.68-3-1.23-4.55-2.43-3.68-6.59,1.07-5.1.37-10.59.21-15.91-.1-3.14.94-3.16,3.46-2.07C142.76,64.41,142.78,64.35,142.78,77.79Z"/><path class="cls-11" d="M58.79,79.36C53.14,82.19,48.54,84.47,44,86.8c-2,1-3,.72-3-1.8-.11-6.32-.35-12.63-.6-18.94-.08-1.83.28-3.21,2.14-4,3.94-1.7,8.27-6.33,11.35-5,2.82,1.24.56,7.51,1,11.53C55.29,72.3,53,76.76,58.79,79.36Z"/><path class="cls-12" d="M91.28,91.75a56.3,56.3,0,0,1,0-13.91A37.82,37.82,0,0,1,91.28,91.75Z"/><path class="cls-13" d="M37.05,73.29c-.14-3-.27-6-.41-8.94l.37-1c0-.16,0-.37.1-.47a3.64,3.64,0,0,1,.61-.49C38,66.05,38.85,69.75,37.05,73.29Z"/><path class="cls-14" d="M33.74,86.44l2.86-.23C35.94,89.94,34.71,86.65,33.74,86.44Z"/><path class="cls-14" d="M37,63.35l-.37,1A1.84,1.84,0,0,1,35,62.54Z"/><path class="cls-12" d="M91.34,68.17l-1.11-1.3A1.28,1.28,0,0,1,91.34,68.17Z"/></g></g></svg>