<svg xmlns="http://www.w3.org/2000/svg" viewBox="0 0 21.07 21.3"><defs><style>.cls-1,.cls-2{fill:#008888;}.cls-2{fill-rule:evenodd;}</style></defs><title>Recurso 16s</title><g id="Capa_2" data-name="Capa 2"><g id="Capa_2-2" data-name="Capa 2"><path class="cls-1" d="M10.53,0A10.54,10.54,0,0,0,1.68,16.25h0L0,21.3l5.14-1.72A10.53,10.53,0,1,0,10.53,0Zm0,19a8.4,8.4,0,0,1-4.75-1.46l-3.17,1,1-3.14A8.44,8.44,0,1,1,10.53,19Z"/><path class="cls-2" d="M8,12.72A10.68,10.68,0,0,1,5.66,7.31,1.88,1.88,0,0,1,7.3,5.21a2.54,2.54,0,0,1,.39,0h0l1,.26A.4.4,0,0,1,9,5.74c.16.45.52,1.52.69,2a.44.44,0,0,1-.13.46L8.6,9a.41.41,0,0,0-.11.49,8.63,8.63,0,0,0,1.17,1.87,8.52,8.52,0,0,0,1.65,1.47.41.41,0,0,0,.5,0l.95-.8a.43.43,0,0,1,.47,0l1.88,1a.41.41,0,0,1,.22.33c0,.35.09,1,.09,1v0a1.88,1.88,0,0,1-2,1.72A2.66,2.66,0,0,1,13,16a10.77,10.77,0,0,1-5-3.26Z"/></g></g></svg>